<svg xmlns="http://www.w3.org/2000/svg" xmlns:xlink="http://www.w3.org/1999/xlink" width="100%" height="250" viewBox="140 80 360 150"><path d="M0 0h612v792H0z" fill="#fff"/><clipPath id="a"><path d="M263.25 87.942h123v24.363h-123z" fill-rule="evenodd"/></clipPath><g clip-path="url(#a)"><symbol id="b"><path d="M.252.727A.215.215 0 0 0 .426.651.294.294 0 0 0 .49.455.29.29 0 0 0 .427.26.215.215 0 0 0 .254.186a.237.237 0 0 0-.094.02.163.163 0 0 0-.073.061H.085V0H0v.715h.085v-.07h.002A.133.133 0 0 0 .15.706a.232.232 0 0 0 .102.021m-.17-.27A.22.22 0 0 1 .125.314a.147.147 0 0 1 .12-.053c.05 0 .087.018.114.053C.386.349.4.398.4.461a.213.213 0 0 1-.042.137.141.141 0 0 1-.118.054.138.138 0 0 1-.116-.054.228.228 0 0 1-.041-.141z"/></symbol><symbol id="c"><path d="M.26.53h.006L.272.528v-.09C.208.439.161.422.13.389.1.353.085.301.085.23V0H0v.517h.08V.408h.002C.102.45.126.48.155.5.185.52.22.53.26.53z"/></symbol><symbol id="d"><path d="M.243.541a.205.205 0 0 0 .173-.08.328.328 0 0 0 .061-.206v-.01H.09V.24C.09.189.104.15.133.12A.156.156 0 0 1 .25.075a.14.14 0 0 1 .09.027.124.124 0 0 1 .044.074h.084A.212.212 0 0 0 .394.045.23.23 0 0 0 .248 0a.22.22 0 0 0-.221.14A.354.354 0 0 0 0 .273c0 .076.023.14.069.19a.224.224 0 0 0 .174.077M.09.321h.297A.155.155 0 0 1 .34.424a.141.141 0 0 1-.104.041.14.14 0 0 1-.1-.04A.159.159 0 0 1 .09.32z"/></symbol><symbol id="e"><path d="M.49.726V.012H.405v.07H.403A.133.133 0 0 0 .339.021.23.23 0 0 0 .238 0a.218.218 0 0 0-.174.075A.292.292 0 0 0 0 .272c0 .08.02.145.063.194.041.05.1.075.172.075a.231.231 0 0 0 .097-.02.16.16 0 0 0 .07-.06h.003v.265H.49m-.4-.46C.09.212.104.166.133.13A.143.143 0 0 1 .25.075C.3.075.339.093.366.13A.226.226 0 0 1 .408.27a.222.222 0 0 1-.043.142.145.145 0 0 1-.121.054A.134.134 0 0 1 .13.413.238.238 0 0 1 .09.267z"/></symbol><symbol id="f"><path d="M.085.714V.61H0v.104h.085m0-.197V0H0v.517h.085z"/></symbol><symbol id="g"><path d="M.244.541A.247.247 0 0 0 .397.496a.185.185 0 0 0 .07-.133H.379A.125.125 0 0 1 .335.44a.13.13 0 0 1-.084.026C.198.466.158.45.131.413A.238.238 0 0 1 .09.264C.09.207.103.161.13.126a.133.133 0 0 1 .11-.05c.042 0 .075.01.098.032a.15.15 0 0 1 .045.093H.47A.238.238 0 0 0 .397.052.225.225 0 0 0 .242 0a.228.228 0 0 0-.178.07A.278.278 0 0 0 0 .265C0 .35.022.416.065.466.109.516.168.54.244.54z"/></symbol><symbol id="h"><path d="M.173.672V.517h.103V.442H.173V.118c0-.026.009-.04.026-.04A.714.714 0 0 1 .252.074h.024V0h-.07C.16 0 .128.008.112.025S.088.069.088.108v.334H0v.075h.088v.155h.085z"/></symbol><symbol id="i"><path d="M.251.541c.078 0 .14-.025.184-.076A.284.284 0 0 0 .502.27.278.278 0 0 0 .434.075.236.236 0 0 0 .25 0a.239.239 0 0 0-.182.073A.276.276 0 0 0 0 .27a.28.28 0 0 0 .068.197C.113.517.174.54.25.54M.09.27C.09.21.105.163.135.128A.146.146 0 0 1 .251.075c.047 0 .085.018.115.053A.21.21 0 0 1 .412.27a.213.213 0 0 1-.045.142.145.145 0 0 1-.117.054.145.145 0 0 1-.114-.053A.21.21 0 0 1 .09.27z"/></symbol><symbol id="j"><path d="M.25.529C.313.529.358.513.386.48.414.449.428.403.428.344V0H.343v.353c0 .03-.01.053-.028.072a.103.103 0 0 1-.078.03A.144.144 0 0 1 .125.41a.163.163 0 0 1-.04-.115V0H0v.517h.08V.435h.002a.184.184 0 0 0 .07.07C.178.522.211.53.25.53z"/></symbol><use xlink:href="#b" transform="matrix(11 0 0 -11 300.95 106.077)"/><use xlink:href="#c" transform="matrix(11 0 0 -11 307.4 103.897)"/><use xlink:href="#d" transform="matrix(11 0 0 -11 310.589 104.031)"/><use xlink:href="#e" transform="matrix(11 0 0 -11 316.493 104.031)"/><use xlink:href="#f" transform="matrix(11 0 0 -11 323.368 103.897)"/><use xlink:href="#g" transform="matrix(11 0 0 -11 325.45 104.031)"/><use xlink:href="#h" transform="matrix(11 0 0 -11 331.054 103.897)"/><use xlink:href="#f" transform="matrix(11 0 0 -11 335.176 103.897)"/><use xlink:href="#i" transform="matrix(11 0 0 -11 337.259 104.031)"/><use xlink:href="#j" transform="matrix(11 0 0 -11 343.877 103.897)"/></g><clipPath id="k"><path d="M263.25 116.442h61.5v24.363h-61.5z" fill-rule="evenodd"/></clipPath><g clip-path="url(#k)"><symbol id="l"><path d="M.096.724.247.301H.25l.145.423h.09L.264.152a.356.356 0 0 0-.066-.12A.12.12 0 0 0 .109 0 .229.229 0 0 0 .05.009v.078L.075.079A.086.086 0 0 1 .1.075c.035 0 .059.017.072.052L.205.21 0 .724h.096z"/></symbol><symbol id="m"><path d="M.205.541c.07 0 .121-.013.155-.04C.394.472.413.432.416.378H.331V.38a.081.081 0 0 1-.036.064.143.143 0 0 1-.084.022.16.16 0 0 1-.08-.017.055.055 0 0 1-.003-.095.227.227 0 0 1 .078-.03l.08-.017A.252.252 0 0 0 .4.255.116.116 0 0 0 .44.163a.14.14 0 0 0-.06-.12A.267.267 0 0 0 .22 0a.253.253 0 0 0-.158.044A.165.165 0 0 0 0 .175h.085A.089.089 0 0 1 .124.101a.172.172 0 0 1 .1-.026.18.18 0 0 1 .093.02.063.063 0 0 1 .032.057C.35.175.34.194.317.207a.42.42 0 0 1-.129.04.304.304 0 0 0-.137.054.119.119 0 0 0-.04.093c0 .045.019.081.055.107.037.027.083.04.14.04z"/></symbol><use xlink:href="#l" transform="matrix(11 0 0 -11 286.013 134.674)"/><use xlink:href="#d" transform="matrix(11 0 0 -11 291.82 132.531)"/><use xlink:href="#m" transform="matrix(11 0 0 -11 297.665 132.531)"/></g><clipPath id="n"><path d="M326.25 116.442h60v24.363h-60z" fill-rule="evenodd"/></clipPath><g clip-path="url(#n)"><use xlink:href="#j" transform="matrix(11 0 0 -11 350.366 132.397)"/><use xlink:href="#i" transform="matrix(11 0 0 -11 356.173 132.531)"/></g><clipPath id="o"><path d="M180.75 141.555h49.5v38.226h-49.5z" fill-rule="evenodd"/></clipPath><g clip-path="url(#o)"><symbol id="p"><path d="M.238.739A.18.18 0 0 0 .332.715.163.163 0 0 0 .393.653h.001v.074h.08V.25C.474.167.454.106.415.063.376.021.315 0 .235 0c-.06 0-.11.013-.15.04A.135.135 0 0 0 .02.151h.085C.106.125.12.105.147.09A.186.186 0 0 1 .239.068a.14.14 0 0 1 .115.05C.381.15.394.2.394.266v.032H.392A.153.153 0 0 0 .33.229.19.19 0 0 0 .23.204a.212.212 0 0 0-.168.072.28.28 0 0 0-.062.19C0 .545.02.61.063.662c.041.051.1.077.175.077M.09.476c0-.061.013-.11.038-.145A.126.126 0 0 1 .236.28c.047 0 .084.018.112.054A.234.234 0 0 1 .39.479c0 .055-.013.1-.039.134a.129.129 0 0 1-.11.051A.135.135 0 0 1 .13.613.216.216 0 0 1 .09.476z"/></symbol><symbol id="q"><path d="M.085.53V.176A.1.1 0 0 1 .113.104.104.104 0 0 1 .19.075C.24.075.277.09.303.12c.027.03.04.068.04.114v.295h.085V.012h-.08v.082H.346A.179.179 0 0 0 .178 0C.118 0 .073.015.043.046.014.078 0 .124 0 .185v.344h.085z"/></symbol><use xlink:href="#p" transform="matrix(11 0 0 -11 186.397 159.82)"/><use xlink:href="#c" transform="matrix(11 0 0 -11 192.983 157.51)"/><use xlink:href="#i" transform="matrix(11 0 0 -11 196.171 157.644)"/><use xlink:href="#q" transform="matrix(11 0 0 -11 202.79 157.644)"/><use xlink:href="#j" transform="matrix(11 0 0 -11 208.903 157.51)"/><use xlink:href="#e" transform="matrix(11 0 0 -11 214.71 157.644)"/><symbol id="r"><path d="M.085.714V.44h.002C.099.469.12.49.15.505.18.521.213.53.25.53.313.529.358.513.386.48.414.449.428.403.428.344V0H.343v.353c0 .03-.01.053-.028.072a.103.103 0 0 1-.078.03A.144.144 0 0 1 .125.41a.163.163 0 0 1-.04-.115V0H0v.714h.085z"/></symbol><use xlink:href="#h" transform="matrix(11 0 0 -11 186.097 171.372)"/><use xlink:href="#c" transform="matrix(11 0 0 -11 190.133 171.372)"/><use xlink:href="#q" transform="matrix(11 0 0 -11 193.826 171.507)"/><use xlink:href="#h" transform="matrix(11 0 0 -11 199.332 171.372)"/><use xlink:href="#r" transform="matrix(11 0 0 -11 203.401 171.372)"/></g><clipPath id="s"><path d="M230.25 141.555h32.25v24.363h-32.25z" fill-rule="evenodd"/></clipPath><g clip-path="url(#s)"><use xlink:href="#l" transform="matrix(11 0 0 -11 241.19 159.787)"/><use xlink:href="#d" transform="matrix(11 0 0 -11 246.997 157.644)"/><use xlink:href="#m" transform="matrix(11 0 0 -11 252.842 157.644)"/></g><clipPath id="t"><path d="M264 142.305h60.75v24.363H264z" fill-rule="evenodd"/></clipPath><g clip-path="url(#t)"><symbol id="u"><path d="M.585.714V.582H.371V0H.214v.582H0v.132h.585z"/></symbol><symbol id="v"><path d="M.327.714A.243.243 0 0 0 .504.65.219.219 0 0 0 .569.485.22.22 0 0 0 .504.319.243.243 0 0 0 .327.256h-.17V0H0v.714h.327M.284.378c.045 0 .078.008.1.025.022.017.033.044.033.082 0 .036-.01.063-.032.08-.02.018-.055.027-.1.027H.156V.378h.127z"/></symbol><use xlink:href="#u" transform="matrix(11 0 0 -11 287.497 158.26)" fill="#38761d"/><use xlink:href="#v" transform="matrix(11 0 0 -11 294.824 158.26)" fill="#38761d"/></g><clipPath id="w"><path d="M326.25 142.305h59.25v24.363h-59.25z" fill-rule="evenodd"/></clipPath><g clip-path="url(#w)"><symbol id="x"><path d="M.502.714V.582H.157V.417h.3V.295h-.3V0H0v.714h.502z"/></symbol><symbol id="y"><path d="m.156.714.298-.48h.002v.48h.147V0H.446L.15.478H.147V0H0v.714h.156z"/></symbol><use xlink:href="#x" transform="matrix(11 0 0 -11 349.3 158.26)" fill="#900"/><use xlink:href="#y" transform="matrix(11 0 0 -11 355.817 158.26)" fill="#900"/></g><clipPath id="z"><path d="M387 141.555h152.25v24.363H387z" fill-rule="evenodd"/></clipPath><g clip-path="url(#z)"><symbol id="A"><path d="M.24.541C.31.541.36.528.388.503a.125.125 0 0 0 .044-.1V.104c0-.019.01-.029.027-.029A.156.156 0 0 1 .486.08V.014A.133.133 0 0 0 .426 0C.401 0 .383.007.371.02.359.033.353.053.353.08a.216.216 0 0 0-.08-.06A.254.254 0 0 0 .171 0a.191.191 0 0 0-.126.038A.132.132 0 0 0 0 .145c0 .047.015.083.044.11.03.028.1.048.21.062a.18.18 0 0 1 .075.021c.013.01.02.024.02.043C.349.41.339.43.32.445.303.459.273.466.233.466A.156.156 0 0 1 .14.442C.118.426.107.402.105.368H.02c.003.057.023.1.06.13C.119.527.172.54.24.54M.09.151C.09.127.099.11.116.095A.12.12 0 0 1 .19.075c.048 0 .086.012.115.036.028.024.043.05.043.08v.088A.13.13 0 0 0 .292.26a5.117 5.117 0 0 0-.09-.013.171.171 0 0 1-.085-.031A.078.078 0 0 1 .09.15z"/></symbol><symbol id="B"><path d="M.085.714V0H0v.714h.085z"/></symbol><use xlink:href="#c" transform="matrix(11 0 0 -11 392.171 157.51)" fill="#15c"/><use xlink:href="#d" transform="matrix(11 0 0 -11 395.36 157.644)" fill="#15c"/><use xlink:href="#g" transform="matrix(11 0 0 -11 401.263 157.644)" fill="#15c"/><use xlink:href="#A" transform="matrix(11 0 0 -11 407.167 157.644)" fill="#15c"/><use xlink:href="#B" transform="matrix(11 0 0 -11 413.431 157.51)" fill="#15c"/><use xlink:href="#B" transform="matrix(11 0 0 -11 415.873 157.51)" fill="#15c"/></g><clipPath id="C"><path d="M230.25 168.168h32.25v24.363h-32.25z" fill-rule="evenodd"/></clipPath><g clip-path="url(#C)"><use xlink:href="#j" transform="matrix(11 0 0 -11 246.278 184.122)"/><use xlink:href="#i" transform="matrix(11 0 0 -11 252.086 184.257)"/></g><clipPath id="D"><path d="M264 168.168h60.75v24.363H264z" fill-rule="evenodd"/></clipPath><g clip-path="url(#D)" fill="#900"><use xlink:href="#x" transform="matrix(11 0 0 -11 288.209 184.122)"/><use xlink:href="#v" transform="matrix(11 0 0 -11 294.724 184.122)"/></g><clipPath id="E"><path d="M326.25 168.168h59.25v24.363h-59.25z" fill-rule="evenodd"/></clipPath><g clip-path="url(#E)" fill="#38761d"><use xlink:href="#u" transform="matrix(11 0 0 -11 348.589 184.122)"/><use xlink:href="#y" transform="matrix(11 0 0 -11 355.916 184.122)"/></g><clipPath id="F"><path d="M387 167.418h152.25v24.363H387z" fill-rule="evenodd"/></clipPath><g clip-path="url(#F)"><symbol id="G"><path d="M.229.722A.205.205 0 0 0 .285.714V.64a.18.18 0 0 1-.048.007C.213.647.197.642.187.632a.055.055 0 0 1-.015-.04V.516h.1V.442h-.1V0H.087v.442H0v.075h.087v.08c0 .039.012.069.036.091.024.023.06.034.106.034M.438.714V.61H.353v.104h.085m0-.197V0H.353v.517h.085z"/></symbol><use xlink:href="#m" transform="matrix(11 0 0 -11 391.838 183.507)" fill="#15c"/><use xlink:href="#b" transform="matrix(11 0 0 -11 397.732 185.553)" fill="#15c"/><use xlink:href="#d" transform="matrix(11 0 0 -11 403.91 183.507)" fill="#15c"/><use xlink:href="#g" transform="matrix(11 0 0 -11 409.813 183.507)" fill="#15c"/><use xlink:href="#f" transform="matrix(11 0 0 -11 416.077 183.372)" fill="#15c"/><use xlink:href="#G" transform="matrix(11 0 0 -11 417.896 183.372)" fill="#15c"/><use xlink:href="#g" transform="matrix(11 0 0 -11 423.854 183.507)" fill="#15c"/><use xlink:href="#f" transform="matrix(11 0 0 -11 430.118 183.372)" fill="#15c"/><use xlink:href="#h" transform="matrix(11 0 0 -11 431.9 183.372)" fill="#15c"/><use xlink:href="#l" transform="matrix(11 0 0 -11 435.35 185.65)" fill="#15c"/></g><clipPath id="H"><path d="M263.25 194.03h62.25v24.363h-62.25z" fill-rule="evenodd"/></clipPath><g clip-path="url(#H)" fill="#15c"><use xlink:href="#b" transform="matrix(11 0 0 -11 272.815 212.166)"/><use xlink:href="#c" transform="matrix(11 0 0 -11 279.267 209.985)"/><use xlink:href="#d" transform="matrix(11 0 0 -11 282.454 210.12)"/><use xlink:href="#g" transform="matrix(11 0 0 -11 288.358 210.12)"/><use xlink:href="#f" transform="matrix(11 0 0 -11 294.622 209.985)"/><use xlink:href="#m" transform="matrix(11 0 0 -11 296.646 210.12)"/><use xlink:href="#f" transform="matrix(11 0 0 -11 302.56 209.985)"/><use xlink:href="#i" transform="matrix(11 0 0 -11 304.643 210.12)"/><use xlink:href="#j" transform="matrix(11 0 0 -11 311.26 209.985)"/></g><clipPath id="I"><path d="M325.5 194.03h60.75v24.363H325.5z" fill-rule="evenodd"/></clipPath><g clip-path="url(#I)"><symbol id="J"><path d="m.101.714.376-.58H.48v.58h.09V0H.465L.092.573H.09V0H0v.714h.101z"/></symbol><symbol id="K"><path d="M.317.714A.222.222 0 0 0 .474.66C.512.625.532.573.532.503S.512.38.474.345a.214.214 0 0 0-.15-.053h-.23V0H0v.714h.317M.291.372c.045 0 .08.01.107.032.026.021.039.054.039.099C.437.547.424.58.398.6.373.623.335.634.285.634h-.19V.372H.29z"/></symbol><symbol id="L"><path d="M.103.714.307.095H.31l.206.619h.099L.36 0H.252L0 .714h.103z"/></symbol><use xlink:href="#J" transform="matrix(11 0 0 -11 345.836 209.985)" fill="#15c"/><use xlink:href="#K" transform="matrix(11 0 0 -11 353.785 209.985)" fill="#15c"/><use xlink:href="#L" transform="matrix(11 0 0 -11 360.037 209.985)" fill="#15c"/></g><path stroke-width="2.00025" stroke-miterlimit="10" fill="none" stroke="#000" d="M263 141v53M326 116v78M386 142v51M263 142h124M230 167h157M263 193h124"/></svg>