<?xml version="1.0" encoding="utf-8" standalone="no"?>
<!DOCTYPE svg PUBLIC "-//W3C//DTD SVG 1.1//EN"
  "http://www.w3.org/Graphics/SVG/1.1/DTD/svg11.dtd">
<svg xmlns:xlink="http://www.w3.org/1999/xlink" width="432pt" height="288pt" viewBox="0 0 432 288" xmlns="http://www.w3.org/2000/svg" version="1.1">
 <metadata>
  <rdf:RDF xmlns:dc="http://purl.org/dc/elements/1.1/" xmlns:cc="http://creativecommons.org/ns#" xmlns:rdf="http://www.w3.org/1999/02/22-rdf-syntax-ns#">
   <cc:Work>
    <dc:type rdf:resource="http://purl.org/dc/dcmitype/StillImage"/>
    <dc:date>2022-04-18T09:18:55.841627</dc:date>
    <dc:format>image/svg+xml</dc:format>
    <dc:creator>
     <cc:Agent>
      <dc:title>Matplotlib v3.5.1, https://matplotlib.org/</dc:title>
     </cc:Agent>
    </dc:creator>
   </cc:Work>
  </rdf:RDF>
 </metadata>
 <defs>
  <style type="text/css">*{stroke-linejoin: round; stroke-linecap: butt}</style>
 </defs>
 <g id="figure_1">
  <g id="patch_1">
   <path d="M 0 288 
L 432 288 
L 432 0 
L 0 0 
z
" style="fill: #ffffff"/>
  </g>
  <g id="axes_1">
   <g id="LineCollection_1">
    <path d="M 394.512397 144 
L 342.227324 59.848451 
" clip-path="url(#p9dd225776b)" style="fill: none; stroke: #000000"/>
    <path d="M 394.512397 144 
L 342.227303 228.151564 
" clip-path="url(#p9dd225776b)" style="fill: none; stroke: #000000"/>
    <path d="M 394.512397 144 
L 37.487603 144.00001 
" clip-path="url(#p9dd225776b)" style="fill: none; stroke: #000000"/>
    <path d="M 342.227324 59.848451 
L 215.999992 24.991736 
" clip-path="url(#p9dd225776b)" style="fill: none; stroke: #000000"/>
    <path d="M 342.227324 59.848451 
L 216.000002 263.008264 
" clip-path="url(#p9dd225776b)" style="fill: none; stroke: #000000"/>
    <path d="M 342.227324 59.848451 
L 89.772676 59.848451 
" clip-path="url(#p9dd225776b)" style="fill: none; stroke: #000000"/>
    <path d="M 215.999992 24.991736 
L 89.772676 59.848451 
" clip-path="url(#p9dd225776b)" style="fill: none; stroke: #000000"/>
    <path d="M 89.772676 59.848451 
L 37.487603 144.00001 
" clip-path="url(#p9dd225776b)" style="fill: none; stroke: #000000"/>
    <path d="M 37.487603 144.00001 
L 89.772665 228.151542 
" clip-path="url(#p9dd225776b)" style="fill: none; stroke: #000000"/>
    <path d="M 89.772665 228.151542 
L 216.000002 263.008264 
" clip-path="url(#p9dd225776b)" style="fill: none; stroke: #000000"/>
    <path d="M 216.000002 263.008264 
L 342.227303 228.151564 
" clip-path="url(#p9dd225776b)" style="fill: none; stroke: #000000"/>
   </g>
   <g id="PathCollection_1">
    <defs>
     <path id="mf595729187" d="M 0 5 
C 1.326016 5 2.597899 4.473168 3.535534 3.535534 
C 4.473168 2.597899 5 1.326016 5 0 
C 5 -1.326016 4.473168 -2.597899 3.535534 -3.535534 
C 2.597899 -4.473168 1.326016 -5 0 -5 
C -1.326016 -5 -2.597899 -4.473168 -3.535534 -3.535534 
C -4.473168 -2.597899 -5 -1.326016 -5 0 
C -5 1.326016 -4.473168 2.597899 -3.535534 3.535534 
C -2.597899 4.473168 -1.326016 5 0 5 
z
" style="stroke: #1f78b4"/>
    </defs>
    <g clip-path="url(#p9dd225776b)">
     <use xlink:href="#mf595729187" x="394.512397" y="144" style="fill: #1f78b4; stroke: #1f78b4"/>
     <use xlink:href="#mf595729187" x="342.227324" y="59.848451" style="fill: #1f78b4; stroke: #1f78b4"/>
     <use xlink:href="#mf595729187" x="215.999992" y="24.991736" style="fill: #1f78b4; stroke: #1f78b4"/>
     <use xlink:href="#mf595729187" x="89.772676" y="59.848451" style="fill: #1f78b4; stroke: #1f78b4"/>
     <use xlink:href="#mf595729187" x="37.487603" y="144.00001" style="fill: #1f78b4; stroke: #1f78b4"/>
     <use xlink:href="#mf595729187" x="89.772665" y="228.151542" style="fill: #1f78b4; stroke: #1f78b4"/>
     <use xlink:href="#mf595729187" x="216.000002" y="263.008264" style="fill: #1f78b4; stroke: #1f78b4"/>
     <use xlink:href="#mf595729187" x="342.227303" y="228.151564" style="fill: #1f78b4; stroke: #1f78b4"/>
    </g>
   </g>
  </g>
 </g>
 <defs>
  <clipPath id="p9dd225776b">
   <rect x="0" y="0" width="432" height="288"/>
  </clipPath>
 </defs>
</svg>
